<?xml version="1.0" standalone="no"?>
<!DOCTYPE svg PUBLIC "-//W3C//DTD SVG 20010904//EN"
 "http://www.w3.org/TR/2001/REC-SVG-20010904/DTD/svg10.dtd">
<svg version="1.0" xmlns="http://www.w3.org/2000/svg"
 width="1920.000000pt" height="1920.000000pt" viewBox="0 0 1920.000000 1920.000000"
 preserveAspectRatio="xMidYMid meet">
<metadata>
Created by potrace 1.11, written by Peter Selinger 2001-2013
</metadata>
<g transform="translate(0.000000,1920.000000) scale(0.100000,-0.100000)"
fill="#000000" stroke="none">
<path d="M12560 14639 c-58 -3 -142 -16 -186 -27 -89 -24 -270 -105 -340 -152
-24 -16 -44 -25 -44 -20 0 5 5 12 10 15 6 4 8 10 5 15 -3 4 11 18 30 30 20 12
34 25 31 27 -6 6 -209 -128 -279 -183 -226 -180 -438 -370 -857 -769 -351
-335 -655 -623 -890 -845 -381 -359 -623 -586 -658 -615 -20 -16 -130 -117
-244 -224 l-209 -193 -39 30 c-33 27 -42 30 -69 22 -20 -5 -165 -127 -387
-326 -330 -294 -374 -337 -612 -602 -141 -156 -258 -291 -260 -298 -8 -33 23
-6 134 119 64 72 156 174 203 226 47 51 88 97 90 103 1 5 25 30 52 55 27 25
47 48 45 52 -2 3 6 15 17 26 11 11 17 14 12 6 -8 -14 648 567 675 598 28 32
58 32 89 1 l28 -29 -66 -64 c-57 -56 -174 -163 -671 -617 -110 -100 -405 -367
-502 -455 -66 -58 -82 -91 -30 -58 27 17 27 17 10 -3 -20 -23 -17 -28 39 -78
49 -44 51 -43 129 31 22 21 65 60 95 87 30 27 110 101 179 165 69 64 184 170
255 236 72 65 168 155 215 199 47 45 117 110 155 145 39 35 108 101 155 145
47 45 144 136 215 202 72 67 144 135 161 150 16 16 86 81 155 145 68 64 142
134 164 155 22 20 76 72 120 113 44 42 116 110 160 151 44 41 157 147 250 236
94 88 203 192 244 230 41 38 95 89 121 114 102 98 240 229 315 300 76 70 157
147 355 334 336 319 632 573 775 667 152 100 256 159 282 159 4 0 21 7 37 15
45 24 125 44 196 51 63 5 185 -10 206 -27 6 -5 14 -6 17 -2 4 3 12 1 19 -4 7
-6 49 -29 93 -52 44 -23 85 -48 90 -55 6 -7 22 -21 38 -30 15 -10 27 -25 27
-33 0 -8 5 -11 10 -8 6 3 10 -1 10 -9 0 -9 9 -16 20 -16 11 0 20 -7 20 -15 0
-9 7 -18 17 -22 14 -5 13 -8 -5 -14 -28 -11 -28 -22 0 -34 24 -10 38 -45 19
-45 -6 0 -12 10 -12 23 -1 17 -2 18 -6 4 -3 -10 -2 -25 1 -33 8 -21 46 4 39
25 -4 14 -4 14 6 1 15 -21 14 -28 -8 -35 -13 -4 -18 -12 -15 -23 5 -13 4 -14
-4 -3 -5 7 -15 10 -22 6 -6 -4 -24 -9 -38 -11 -15 -2 -38 -5 -51 -7 -14 -2
-27 -10 -29 -18 -3 -11 -1 -11 7 1 9 12 11 11 11 -7 0 -13 5 -23 12 -23 6 0 4
-6 -7 -13 -10 -8 -15 -19 -11 -25 4 -7 2 -12 -4 -12 -6 0 -8 -4 -5 -10 3 -5 2
-10 -3 -10 -18 0 -21 27 -6 49 8 11 12 21 7 21 -17 -1 -39 -47 -38 -82 0 -37
-9 -51 -17 -26 -3 8 -14 3 -31 -14 -26 -26 -38 -56 -17 -43 14 9 12 -14 -3
-29 -7 -7 -17 -11 -23 -9 -6 2 -11 -3 -11 -11 0 -8 6 -12 14 -9 7 3 13 0 13
-6 0 -6 5 -11 11 -11 6 0 9 5 7 12 -2 6 4 20 14 30 10 10 18 25 18 33 0 8 8
15 18 15 14 0 15 2 2 10 -11 7 -6 10 20 11 33 0 33 1 13 11 -23 11 -32 38 -13
38 6 0 10 -7 10 -15 0 -13 12 -19 32 -16 4 0 2 -13 -4 -29 -5 -17 -12 -30 -15
-30 -3 0 -3 7 1 15 7 19 1 19 -30 -1 -15 -10 -21 -21 -16 -28 12 -17 8 -41 -7
-38 -7 1 -22 -7 -33 -20 -12 -14 -22 -18 -26 -12 -8 13 -42 14 -42 2 0 -5 7
-11 16 -15 8 -3 13 -12 10 -19 -3 -8 0 -11 10 -7 10 4 12 0 8 -11 -11 -30 -40
-17 -36 16 1 3 -5 11 -12 17 -11 9 -12 1 -10 -41 2 -29 1 -45 -2 -35 -3 9 -10
17 -15 17 -5 0 -9 7 -9 15 0 8 -9 20 -20 27 -25 16 -26 28 -2 28 14 0 15 2 2
10 -24 16 -29 12 -25 -20 2 -16 0 -30 -5 -30 -6 0 -10 5 -10 10 0 6 -5 10 -12
10 -9 0 -9 -3 0 -12 7 -7 12 -19 11 -28 0 -10 -2 -11 -6 -3 -3 10 -8 10 -19
-1 -19 -19 -18 -21 10 -22 17 -1 27 6 35 24 l12 25 16 -22 c8 -12 12 -25 8
-29 -4 -4 -10 -1 -12 6 -3 6 -9 9 -14 6 -6 -3 -5 -11 2 -20 9 -11 8 -14 -8
-14 -10 0 -23 -4 -29 -10 -5 -5 -19 -11 -31 -13 -11 -1 -28 -9 -37 -16 -8 -7
-20 -10 -25 -6 -7 4 -8 -1 -4 -11 4 -11 3 -15 -5 -10 -18 11 -61 -4 -56 -19 6
-15 -29 -38 -41 -27 -5 4 -6 0 -3 -9 5 -12 0 -14 -24 -11 -21 3 -29 1 -24 -7
4 -6 1 -11 -6 -11 -16 0 -41 -37 -33 -50 4 -6 1 -10 -4 -10 -6 0 -11 6 -11 13
0 9 -2 9 -9 -1 -7 -11 -9 -11 -14 2 -4 9 -12 16 -19 15 -10 0 -10 -2 0 -6 17
-7 15 -23 -5 -40 -10 -8 -12 -12 -5 -8 6 3 12 1 12 -4 0 -6 -5 -11 -11 -11 -6
0 -29 -16 -50 -35 -22 -19 -34 -35 -29 -35 6 0 2 -9 -9 -21 -11 -12 -24 -18
-30 -14 -6 3 -11 2 -11 -3 0 -5 -20 -31 -45 -56 -25 -26 -45 -52 -45 -57 0 -6
-4 -7 -10 -4 -5 3 -12 -6 -16 -21 -5 -19 -9 -22 -15 -12 -8 13 -13 -3 -12 -39
1 -7 -7 -13 -17 -13 -12 0 -21 -10 -25 -31 -6 -24 -9 -28 -17 -18 -7 10 -8 6
-4 -14 4 -15 3 -27 -1 -26 -19 3 -33 -2 -33 -12 0 -5 5 -7 10 -4 6 3 10 2 10
-3 0 -5 -9 -12 -20 -15 -12 -3 -20 -14 -20 -26 0 -12 -5 -21 -11 -21 -5 0 -7
5 -3 12 5 7 3 8 -5 3 -9 -5 -10 -10 -2 -18 6 -6 11 -14 11 -19 0 -11 -33 3
-48 21 -11 14 -11 13 -2 -6 6 -13 19 -27 29 -33 11 -5 27 -30 36 -55 10 -25
21 -45 26 -45 4 0 14 -3 22 -6 12 -4 16 8 22 58 23 198 180 419 465 654 128
105 234 164 294 164 14 0 26 5 26 11 0 5 4 7 10 4 5 -3 31 -8 57 -11 177 -19
306 -113 600 -438 82 -90 167 -185 191 -212 24 -27 40 -43 37 -36 -4 7 25 79
64 160 39 81 71 151 71 155 0 4 11 29 24 56 14 31 19 47 11 44 -10 -3 -12 10
-10 59 4 56 3 58 -4 18 -7 -40 -46 -135 -99 -239 -9 -19 -25 -36 -35 -39 -13
-3 -17 -11 -13 -25 3 -14 2 -17 -6 -9 -6 6 -10 22 -10 36 0 14 -4 26 -9 26 -5
0 -9 -8 -9 -17 0 -10 -11 -23 -25 -30 -32 -14 -33 2 -6 55 11 21 23 56 26 77
4 22 12 48 17 58 18 36 38 217 32 295 -10 124 -50 265 -111 387 -37 73 -135
228 -162 256 -9 9 -43 47 -76 84 -33 38 -64 72 -70 77 -92 76 -158 125 -192
140 -24 10 -43 23 -43 29 0 6 -4 7 -10 4 -5 -3 -31 3 -57 15 -82 34 -234 56
-353 49z m-573 -193 c-12 -24 -81 -73 -98 -68 -5 1 -9 -3 -9 -10 0 -6 -3 -9
-6 -5 -6 6 -45 -24 -77 -60 -12 -13 -24 -23 -28 -23 -4 0 -21 -13 -39 -30 -17
-16 -37 -28 -43 -27 -7 1 -11 -4 -9 -11 1 -8 -2 -11 -7 -8 -5 3 -12 -1 -15
-10 -4 -9 -9 -14 -12 -11 -3 3 -21 -9 -39 -26 -71 -69 -109 -102 -112 -99 -8
6 -31 -24 -25 -33 3 -5 2 -7 -2 -4 -7 7 -49 -29 -135 -113 -32 -32 -63 -58
-70 -58 -7 0 -9 -5 -5 -12 4 -7 4 -10 -1 -6 -4 4 -35 -20 -69 -53 -141 -138
-163 -158 -169 -153 -3 3 23 31 56 61 63 57 194 182 228 217 11 11 19 16 20
10 0 -5 3 -2 7 7 4 8 34 39 67 69 33 29 76 67 95 84 19 17 38 30 42 29 5 -2 8
1 8 6 0 16 221 196 237 193 8 -2 12 1 9 7 -9 14 140 125 155 115 8 -5 9 -3 4
6 -6 10 -4 12 11 6 10 -4 15 -4 11 0 -4 4 -2 13 4 21 18 21 28 15 16 -11z
m973 -446 c25 -25 25 -33 0 -25 -12 4 -28 1 -36 -6 -12 -10 -15 -10 -12 2 2 8
-3 13 -10 11 -8 -1 -12 3 -9 10 2 7 14 12 26 11 13 -2 20 1 16 7 -10 17 4 11
25 -10z m20 10 c0 -5 -2 -10 -4 -10 -3 0 -8 5 -11 10 -3 6 -1 10 4 10 6 0 11
-4 11 -10z m5 -60 c-3 -5 -15 -10 -25 -10 -12 0 -17 -5 -14 -13 4 -11 -60 -57
-80 -57 -19 0 -1 21 28 31 22 8 37 21 41 36 4 16 13 23 31 23 14 0 23 -4 19
-10z m-75 -25 c-7 -8 -18 -15 -24 -14 -6 0 -5 3 3 6 11 5 11 7 0 14 -10 6 -7
9 10 9 20 0 21 -2 11 -15z m80 -24 c0 -4 -6 -8 -14 -8 -8 0 -12 6 -9 14 5 13
23 9 23 -6z m27 -53 c-3 -8 -6 -5 -6 6 -1 11 2 17 5 13 3 -3 4 -12 1 -19z
m-217 -15 c0 -5 -4 -14 -9 -21 -7 -11 -9 -11 -14 1 -3 8 -3 18 0 21 9 8 23 7
23 -1z m59 -60 c-7 -10 -14 -20 -16 -22 -1 -2 -1 6 0 18 1 11 8 21 15 21 12 0
12 -3 1 -17z m41 -7 c0 -2 -7 -9 -15 -16 -13 -11 -14 -10 -9 4 5 14 24 23 24
12z m-120 -110 c0 -2 -8 -10 -17 -17 -16 -13 -17 -12 -4 4 13 16 21 21 21 13z
m-1770 -40 c0 -1 -13 -17 -30 -34 -16 -18 -30 -29 -30 -25 0 4 -7 -2 -15 -13
-8 -10 -15 -15 -15 -11 0 4 19 26 43 47 41 39 47 43 47 36z m-185 -183 c-49
-46 -99 -89 -110 -95 -11 -6 7 13 40 43 33 30 80 75 105 101 25 25 47 44 50
41 3 -3 -35 -43 -85 -90z m1665 93 c0 -3 -4 -8 -10 -11 -5 -3 -10 -1 -10 4 0
6 5 11 10 11 6 0 10 -2 10 -4z m-1810 -226 c0 -5 -8 -10 -17 -10 -15 0 -16 2
-3 10 19 12 20 12 20 0z m-64 -65 c-27 -25 -53 -45 -59 -45 -6 0 -8 -3 -5 -6
4 -3 -12 -22 -35 -42 -22 -20 -60 -57 -84 -81 -24 -24 -43 -40 -43 -36 0 4 48
54 108 111 59 57 116 113 126 124 11 11 24 20 30 20 5 0 -12 -20 -38 -45z
m2906 -168 c-9 -11 -8 -18 7 -31 19 -17 19 -17 15 1 -5 17 -1 19 25 15 36 -5
36 -4 15 -43 l-15 -31 -34 39 c-36 40 -42 53 -25 53 6 0 10 5 10 11 0 5 -5 7
-12 3 -7 -5 -8 -3 -3 5 5 9 10 10 18 2 7 -7 7 -14 -1 -24z m-3142 -56 c0 -5
-7 -14 -15 -21 -8 -7 -15 -10 -15 -7 0 4 -10 -4 -23 -16 -13 -12 -22 -25 -20
-29 2 -4 -5 -9 -16 -13 -11 -3 -22 -12 -25 -20 -3 -8 -10 -15 -16 -15 -6 0 18
29 52 65 61 62 78 75 78 56z m-158 -138 c-6 -2 -10 -9 -7 -14 3 -5 -8 -17 -24
-27 -17 -10 -29 -21 -28 -23 2 -2 -5 -12 -15 -21 -10 -10 -18 -16 -18 -14 0 1
-41 -37 -92 -86 -50 -48 -94 -86 -97 -83 -3 3 19 27 49 53 29 26 80 75 113
109 33 34 67 65 77 68 10 3 20 15 23 25 3 11 11 20 19 19 10 0 10 -2 0 -6z
m-346 -337 c-31 -31 -61 -56 -66 -56 -6 0 -10 -7 -10 -15 0 -8 -4 -15 -9 -15
-5 0 -30 -20 -54 -45 -25 -25 -50 -45 -56 -45 -6 0 -10 -5 -8 -12 1 -7 -2 -12
-8 -13 -5 0 -44 -35 -85 -77 -41 -43 -76 -75 -78 -73 -2 2 -18 -13 -36 -33
-20 -21 -35 -31 -39 -25 -4 6 9 24 29 39 20 16 52 46 72 67 20 20 43 37 51 37
8 0 12 3 8 6 -3 3 20 29 51 57 32 29 80 73 107 99 136 127 180 166 184 163 2
-2 -22 -29 -53 -59z m-491 -464 c-22 -20 -44 -37 -50 -37 -5 0 -10 -6 -10 -12
0 -7 -4 -14 -10 -15 -5 -1 -22 -15 -37 -31 -16 -15 -28 -25 -28 -22 0 3 -11
-6 -25 -21 -14 -15 -25 -30 -25 -35 0 -4 -9 -10 -20 -14 -11 -3 -19 -12 -17
-18 1 -7 -6 -11 -15 -11 -10 1 -18 -4 -18 -10 0 -15 -74 -88 -82 -81 -2 3 -25
-17 -49 -45 -24 -27 -50 -50 -57 -50 -8 0 -10 -5 -6 -12 4 -7 4 -10 0 -6 -10
8 -36 -14 -29 -24 2 -5 0 -8 -6 -8 -5 0 -41 -31 -80 -70 -38 -38 -75 -70 -81
-70 -6 0 -8 -5 -4 -12 4 -6 3 -8 -2 -5 -6 3 -25 -10 -43 -29 -19 -19 -38 -34
-43 -34 -5 0 -6 -4 -3 -10 3 -5 1 -10 -4 -10 -6 0 -33 -22 -60 -50 -27 -27
-52 -50 -55 -50 -11 0 -51 -45 -48 -53 1 -5 -1 -6 -6 -3 -4 3 -19 -8 -32 -25
-14 -16 -29 -29 -35 -29 -13 0 -45 -36 -39 -44 2 -3 1 -4 -2 -2 -3 3 -17 -8
-31 -24 -13 -16 -29 -29 -36 -27 -6 1 -11 -3 -12 -10 0 -7 -15 -23 -32 -36
-18 -13 -30 -27 -26 -31 4 -4 -1 -4 -11 0 -14 5 -17 4 -12 -4 4 -7 2 -12 -6
-12 -7 0 -22 -13 -33 -29 -10 -16 -23 -27 -27 -25 -4 3 -8 -2 -8 -11 0 -9 -4
-13 -10 -10 -5 3 -10 1 -10 -5 0 -5 -15 -19 -32 -30 -18 -11 -31 -22 -28 -25
3 -2 -10 -15 -29 -29 -18 -14 -41 -33 -51 -43 -28 -30 -70 -63 -78 -63 -4 0
18 24 49 53 208 194 335 311 479 442 285 261 439 403 668 620 250 235 322 298
330 290 4 -3 -12 -22 -33 -43z m-1305 -995 c0 -2 -10 -12 -22 -23 l-23 -19 19
23 c18 21 26 27 26 19z m-212 -401 c-13 -13 -25 -22 -27 -20 -2 1 -25 -21 -52
-49 -27 -29 -49 -48 -49 -44 0 5 -14 -5 -31 -22 -17 -17 -33 -31 -37 -31 -3 0
11 18 33 39 21 22 41 39 44 39 3 -1 32 24 65 55 56 55 101 82 54 33z"/>
<path d="M9069 11793 c-13 -16 -12 -17 4 -4 9 7 17 15 17 17 0 8 -8 3 -21 -13z"/>
<path d="M8769 11513 c-13 -16 -12 -17 4 -4 16 13 21 21 13 21 -2 0 -10 -8
-17 -17z"/>
<path d="M12920 14596 c0 -7 40 -14 44 -7 3 4 -6 8 -20 9 -13 1 -24 0 -24 -2z"/>
<path d="M13055 14570 c3 -5 11 -10 16 -10 6 0 7 5 4 10 -3 6 -11 10 -16 10
-6 0 -7 -4 -4 -10z"/>
<path d="M13035 14550 c3 -5 8 -10 11 -10 2 0 4 5 4 10 0 6 -5 10 -11 10 -5 0
-7 -4 -4 -10z"/>
<path d="M13095 14540 c3 -6 11 -10 16 -10 6 0 37 -18 70 -40 32 -23 59 -38
59 -36 0 7 -111 81 -133 89 -11 4 -16 3 -12 -3z"/>
<path d="M13100 14516 c0 -2 7 -7 16 -10 8 -3 12 -2 9 4 -6 10 -25 14 -25 6z"/>
<path d="M11750 14449 l-35 -30 38 26 c33 24 43 35 34 35 -1 0 -18 -14 -37
-31z"/>
<path d="M13270 14425 c13 -14 26 -25 28 -25 3 0 -5 11 -18 25 -13 14 -26 25
-28 25 -3 0 5 -11 18 -25z"/>
<path d="M11684 14398 l-19 -23 23 19 c21 18 27 26 19 26 -2 0 -12 -10 -23
-22z"/>
<path d="M13340 14365 c13 -14 26 -25 28 -25 3 0 -5 11 -18 25 -13 14 -26 25
-28 25 -3 0 5 -11 18 -25z"/>
<path d="M11610 14339 l-45 -41 42 32 c38 28 60 50 51 50 -2 0 -23 -18 -48
-41z"/>
<path d="M13405 14310 c10 -11 20 -20 23 -20 3 0 -3 9 -13 20 -10 11 -20 20
-23 20 -3 0 3 -9 13 -20z"/>
<path d="M11534 14278 l-19 -23 23 19 c12 11 22 21 22 23 0 8 -8 2 -26 -19z"/>
<path d="M11335 14106 c-188 -170 -363 -336 -300 -286 22 18 74 65 115 104 41
40 139 130 218 200 123 111 151 138 140 136 -2 -1 -79 -70 -173 -154z"/>
<path d="M11479 14193 l-24 -28 28 24 c25 23 32 31 24 31 -2 0 -14 -12 -28
-27z"/>
<path d="M13520 14176 c0 -2 8 -10 18 -17 15 -13 16 -12 3 4 -13 16 -21 21
-21 13z"/>
<path d="M11504 14148 l-19 -23 23 19 c12 11 22 21 22 23 0 8 -8 2 -26 -19z"/>
<path d="M11389 14113 l-24 -28 28 24 c25 23 32 31 24 31 -2 0 -14 -12 -28
-27z"/>
<path d="M11434 14118 l-19 -23 23 19 c21 18 27 26 19 26 -2 0 -12 -10 -23
-22z"/>
<path d="M13550 14136 c0 -2 8 -10 18 -17 15 -13 16 -12 3 4 -13 16 -21 21
-21 13z"/>
<path d="M12930 14086 c0 -2 7 -7 16 -10 8 -3 12 -2 9 4 -6 10 -25 14 -25 6z"/>
<path d="M12927 14060 c15 -16 43 -22 43 -9 0 5 -4 9 -9 9 -5 0 -18 3 -28 6
-15 6 -16 4 -6 -6z"/>
<path d="M11279 14013 c-13 -16 -12 -17 4 -4 9 7 17 15 17 17 0 8 -8 3 -21
-13z"/>
<path d="M11289 13993 c-13 -16 -12 -17 4 -4 16 13 21 21 13 21 -2 0 -10 -8
-17 -17z"/>
<path d="M12800 13947 c-12 -21 -12 -21 6 -7 10 8 20 15 22 16 2 1 -1 4 -5 7
-5 3 -15 -4 -23 -16z"/>
<path d="M11179 13923 l-24 -28 28 24 c15 14 27 26 27 28 0 8 -8 1 -31 -24z"/>
<path d="M12765 13900 c3 -5 11 -10 16 -10 6 0 7 5 4 10 -3 6 -11 10 -16 10
-6 0 -7 -4 -4 -10z"/>
<path d="M12711 13870 c-1 -23 15 -45 23 -31 4 6 3 11 -3 11 -5 0 -12 8 -14
18 -3 12 -5 13 -6 2z"/>
<path d="M12705 13810 c3 -5 8 -10 11 -10 2 0 4 5 4 10 0 6 -5 10 -11 10 -5 0
-7 -4 -4 -10z"/>
<path d="M12590 13761 c0 -6 4 -13 10 -16 6 -3 7 1 4 9 -7 18 -14 21 -14 7z"/>
<path d="M12541 13697 c-8 -10 -7 -14 2 -14 8 0 14 6 14 14 0 7 -1 13 -2 13
-2 0 -8 -6 -14 -13z"/>
<path d="M12505 13690 c-4 -6 -11 -7 -17 -4 -7 4 -8 2 -4 -5 6 -9 11 -9 22 0
14 11 18 19 10 19 -3 0 -8 -5 -11 -10z"/>
<path d="M12672 13680 c7 -10 14 -18 15 -16 6 6 -9 36 -18 36 -5 0 -4 -9 3
-20z"/>
<path d="M13771 13634 c0 -11 3 -14 6 -6 3 7 2 16 -1 19 -3 4 -6 -2 -5 -13z"/>
<path d="M12528 13617 c7 -8 9 -17 5 -21 -4 -3 -8 -14 -9 -23 -3 -21 12 -4 20
23 5 15 2 24 -10 28 -13 5 -14 4 -6 -7z"/>
<path d="M12580 13600 c-9 -6 -10 -10 -3 -10 6 0 15 5 18 10 8 12 4 12 -15 0z"/>
<path d="M12430 13590 c0 -5 5 -10 11 -10 5 0 7 5 4 10 -3 6 -8 10 -11 10 -2
0 -4 -4 -4 -10z"/>
<path d="M10560 13526 c-163 -82 -379 -225 -510 -339 -420 -365 -777 -709
-1048 -1012 -84 -93 -176 -186 -203 -205 -28 -19 -68 -48 -90 -65 -21 -16
-105 -81 -186 -144 -265 -206 -713 -596 -713 -622 0 -18 14 -8 79 54 63 59
107 98 306 272 144 126 140 120 -56 -80 -102 -105 -214 -224 -250 -265 -60
-69 -96 -127 -86 -137 3 -2 45 47 95 109 107 134 429 457 597 599 22 18 78 68
125 110 86 77 277 208 360 246 115 53 242 103 310 123 41 12 81 27 88 32 14
12 17 32 3 24 -5 -4 -48 -17 -94 -31 -47 -13 -131 -45 -188 -70 -56 -25 -103
-44 -105 -42 -1 1 113 91 254 199 141 109 263 207 270 219 11 17 11 20 0 13
-22 -14 -419 -314 -483 -366 -33 -26 -63 -48 -68 -48 -4 0 66 80 156 178 169
183 472 477 682 663 66 59 172 153 235 209 133 118 363 276 518 356 88 46 152
86 132 83 -3 0 -61 -28 -130 -63z"/>
<path d="M12476 13573 c-6 -14 -5 -15 5 -6 7 7 10 15 7 18 -3 3 -9 -2 -12 -12z"/>
<path d="M13781 13574 c0 -11 3 -14 6 -6 3 7 2 16 -1 19 -3 4 -6 -2 -5 -13z"/>
<path d="M13782 13520 c0 -14 2 -19 5 -12 2 6 2 18 0 25 -3 6 -5 1 -5 -13z"/>
<path d="M12340 13520 c0 -5 5 -10 11 -10 5 0 7 5 4 10 -3 6 -8 10 -11 10 -2
0 -4 -4 -4 -10z"/>
<path d="M11731 12886 c2 -2 15 -9 29 -15 24 -11 24 -11 6 3 -16 13 -49 24
-35 12z"/>
<path d="M11705 12811 c3 -6 13 -11 21 -11 9 0 12 -5 8 -12 -4 -7 -3 -8 4 -4
17 10 52 -12 46 -29 -4 -8 -10 -12 -15 -9 -5 3 -12 -2 -15 -11 -4 -9 -12 -14
-19 -11 -7 2 -15 -4 -18 -15 -4 -15 -2 -18 7 -10 7 6 15 8 19 5 3 -3 8 3 11
13 3 10 15 19 26 20 22 2 25 -9 10 -38 -7 -11 -7 -19 -1 -19 5 0 12 6 14 13 4
7 6 6 6 -5 1 -9 6 -18 13 -20 14 -5 2 -28 -15 -28 -7 0 -6 4 3 10 12 8 12 10
-4 16 -11 4 -24 1 -34 -9 -14 -15 -14 -17 2 -23 16 -6 16 -7 0 -19 -19 -13
-57 -8 -48 7 3 5 11 5 19 -2 9 -8 15 -8 20 0 3 5 0 10 -8 10 -10 0 -13 7 -10
20 3 11 10 20 16 20 6 0 7 3 4 6 -3 4 -1 16 5 28 10 20 10 20 -11 -1 -11 -12
-21 -31 -21 -43 0 -17 -11 -26 -24 -17 -2 1 -13 -6 -24 -16 -20 -18 -21 -18
-31 0 -9 17 -11 17 -26 -5 -9 -12 -22 -19 -28 -16 -7 4 -9 4 -5 0 9 -11 -52
-77 -65 -69 -6 3 -7 1 -4 -4 4 -6 0 -16 -7 -22 -9 -8 -17 -8 -20 -2 -3 5 -1
12 4 14 6 3 5 4 -2 2 -7 -1 -29 12 -48 29 l-35 31 25 -30 c62 -73 56 -73 132
2 l68 67 54 -53 c30 -30 54 -62 53 -72 -1 -10 -3 -16 -6 -13 -8 8 -80 -69 -74
-79 3 -6 1 -7 -4 -4 -6 4 -18 -2 -28 -13 -17 -19 -15 -21 45 -85 62 -64 63
-65 45 -85 -18 -20 -18 -21 5 -45 l23 -24 61 48 c34 27 94 69 134 95 39 25 72
51 72 58 0 21 -49 173 -74 230 -28 63 -34 69 -91 83 -36 10 -42 16 -55 57 -8
26 -19 52 -25 57 -15 15 -88 44 -80 32z m0 -190 c-3 -5 4 -12 15 -16 11 -4 18
-11 15 -16 -4 -5 -1 -9 4 -9 6 0 11 -9 11 -19 0 -11 7 -22 15 -24 11 -4 10 -5
-2 -3 -10 0 -26 17 -35 36 -10 19 -18 29 -18 22 0 -10 -3 -10 -14 0 -10 9 -11
17 -4 26 12 14 22 16 13 3z m90 -40 c3 -5 0 -13 -6 -17 -8 -5 -9 -3 -4 6 6 10
4 12 -9 7 -10 -4 -15 -3 -11 3 8 13 22 13 30 1z m15 -47 c0 -8 -4 -12 -10 -9
-5 3 -10 10 -10 16 0 5 5 9 10 9 6 0 10 -7 10 -16z m-90 -105 c-7 -11 -14 -18
-17 -15 -3 3 0 12 7 21 18 21 23 19 10 -6z m-50 -54 c-7 -9 -15 -13 -19 -10
-3 3 1 10 9 15 21 14 24 12 10 -5z"/>
<path d="M11349 12593 c-13 -16 -12 -17 4 -4 9 7 17 15 17 17 0 8 -8 3 -21
-13z"/>
<path d="M11250 12586 c0 -2 8 -10 18 -17 15 -13 16 -12 3 4 -13 16 -21 21
-21 13z"/>
<path d="M11555 12580 c-3 -5 -1 -10 4 -10 6 0 11 5 11 10 0 6 -2 10 -4 10 -3
0 -8 -4 -11 -10z"/>
<path d="M11295 12461 c17 -19 43 -47 60 -62 16 -15 26 -31 22 -35 -4 -5 -12
-3 -16 5 -6 10 -10 9 -14 -4 -4 -9 -3 -13 3 -10 28 17 3 -16 -47 -63 -52 -49
-56 -55 -44 -74 11 -18 11 -20 -4 -15 -9 4 -14 3 -10 -3 3 -6 1 -10 -4 -10 -6
0 -11 6 -11 13 0 7 -5 5 -10 -5 -12 -19 -2 -51 12 -42 6 4 5 10 -3 15 -10 6
-10 9 -2 9 25 0 25 -24 0 -42 -17 -12 -24 -25 -20 -35 4 -10 2 -14 -4 -10 -6
4 -14 1 -16 -5 -4 -9 -8 -10 -14 -2 -11 14 -53 25 -53 13 0 -5 5 -9 10 -9 6 0
10 -7 10 -16 0 -14 -1 -14 -16 0 -20 20 -30 21 -14 1 10 -12 10 -15 -3 -15
-11 0 -17 12 -20 38 -2 20 -2 -1 0 -48 3 -47 6 -86 8 -88 2 -2 54 -10 117 -17
125 -15 223 -35 280 -59 21 -9 42 -16 47 -16 5 0 21 21 36 46 15 25 55 81 90
124 l64 78 -24 22 c-24 23 -25 23 -45 5 -20 -18 -22 -18 -85 45 -54 54 -66 61
-79 51 -9 -8 -13 -18 -9 -24 3 -5 2 -7 -4 -4 -6 4 -21 -5 -34 -19 -13 -14 -37
-35 -52 -46 -25 -18 -30 -19 -45 -5 -18 17 -37 17 -62 2 -12 -7 -13 -6 -3 7 7
8 10 18 6 21 -13 14 -20 6 -17 -20 3 -21 -4 -34 -24 -52 -17 -15 -21 -21 -9
-17 11 3 16 2 12 -4 -3 -6 -17 -10 -31 -10 -13 0 -24 -4 -24 -10 0 -5 3 -9 8
-8 12 2 42 -13 42 -22 0 -5 -15 -1 -32 8 -18 9 -39 16 -47 17 -8 0 -16 6 -19
13 -3 9 3 11 21 7 31 -8 81 35 84 72 4 52 11 58 38 33 14 -13 25 -19 25 -13 0
6 -13 21 -30 34 -16 13 -30 27 -30 30 0 4 30 36 68 73 l67 65 -65 63 c-35 35
-51 48 -35 29z m235 -237 c0 -2 -7 -4 -15 -4 -8 0 -15 4 -15 10 0 5 7 7 15 4
8 -4 15 -8 15 -10z m-45 -52 c-3 -3 -11 0 -18 7 -9 10 -8 11 6 5 10 -3 15 -9
12 -12z m40 -2 c3 -6 -1 -7 -9 -4 -18 7 -21 14 -7 14 6 0 13 -4 16 -10z m-89
-20 c0 -12 -4 -16 -9 -11 -5 5 -6 14 -3 20 10 15 12 14 12 -9z m-99 -16 c-3
-3 -12 -4 -19 -1 -8 3 -5 6 6 6 11 1 17 -2 13 -5z m-7 -27 c0 -5 -7 -7 -15 -3
-9 3 -15 0 -15 -8 0 -8 6 -17 13 -19 9 -4 9 -6 0 -6 -15 -1 -26 16 -20 33 6
15 37 17 37 3z m27 -2 c0 -8 -4 -12 -9 -9 -5 3 -6 10 -3 15 9 13 12 11 12 -6z
m-225 -89 c2 -12 -3 -20 -14 -21 -13 -2 -18 3 -18 19 0 42 24 43 32 2z m56 6
c2 -7 -2 -10 -12 -6 -12 5 -16 0 -16 -17 0 -28 -5 -23 -14 14 -6 25 -4 28 15
25 12 -2 24 -9 27 -16z m17 -41 c3 -5 0 -13 -6 -17 -7 -4 -9 -3 -5 4 3 5 0 13
-6 15 -9 4 -10 6 -1 6 6 1 14 -3 18 -8z m-75 -11 c0 -5 -7 -7 -15 -4 -8 4 -15
8 -15 10 0 2 7 4 15 4 8 0 15 -4 15 -10z m37 -6 c-3 -3 -12 -4 -19 -1 -8 3 -5
6 6 6 11 1 17 -2 13 -5z"/>
<path d="M12095 12348 l7 -44 -64 -39 c-216 -133 -340 -262 -464 -483 -1 -1
-26 7 -55 19 -116 46 -236 71 -416 85 l-83 7 0 68 c0 44 -4 69 -11 69 -6 0 -9
-7 -5 -15 3 -8 1 -15 -4 -15 -6 0 -10 -12 -9 -27 l1 -28 8 25 c7 21 8 19 9
-17 1 -24 -4 -43 -11 -46 -10 -4 -9 -8 2 -16 10 -7 11 -11 3 -11 -7 0 -17 10
-24 21 -7 14 -7 19 0 15 10 -6 7 5 -13 64 -2 8 -4 -6 -4 -32 1 -26 -5 -54 -12
-63 -10 -12 -10 -15 0 -15 8 0 11 -3 7 -6 -8 -9 -48 6 -42 16 6 10 -25 23 -34
14 -3 -3 6 -16 21 -29 28 -24 27 -35 -4 -35 -10 0 -18 -5 -18 -11 0 -6 8 -8
18 -5 15 5 15 4 -2 -8 -10 -8 -15 -19 -11 -25 3 -6 1 -11 -4 -11 -6 0 -11 14
-11 30 0 22 6 33 22 39 18 6 19 9 5 14 -10 4 -17 2 -17 -3 0 -6 -9 -10 -19
-10 -12 0 -21 -9 -25 -25 -4 -14 -11 -23 -16 -20 -12 8 -60 -5 -60 -16 0 -5
16 -15 35 -23 29 -12 35 -20 34 -43 l-2 -28 -4 27 c-3 20 -8 25 -20 21 -10 -4
-14 -2 -10 4 4 7 -4 14 -21 18 -19 4 -28 12 -28 25 0 11 6 20 13 20 7 0 13 4
13 9 0 5 -9 7 -20 4 -23 -6 -28 -51 -6 -59 32 -12 -5 -97 -38 -86 -4 1 -15 -3
-24 -10 -13 -11 -15 -10 -9 5 4 10 7 26 8 35 0 14 2 13 9 -3 8 -19 9 -19 9 2
1 14 11 25 29 32 l27 11 -32 -3 c-22 -2 -33 1 -33 10 0 7 7 13 15 13 8 0 15 7
15 16 0 13 -6 11 -24 -9 -13 -14 -28 -23 -32 -19 -5 4 -3 0 4 -9 6 -9 9 -18 6
-22 -10 -10 -34 4 -35 22 0 13 -2 13 -6 1 -4 -8 -16 -22 -27 -31 -19 -16 -20
-18 -3 -24 18 -7 25 -65 8 -65 -5 0 -9 6 -8 13 1 31 -4 47 -14 47 -7 0 -9 -13
-5 -37 5 -28 4 -34 -3 -23 -6 8 -11 23 -11 33 0 9 -6 17 -12 17 -10 0 -9 3 1
9 7 5 9 11 5 14 -5 3 -15 -1 -21 -8 -10 -11 -10 -17 2 -29 8 -8 15 -21 15 -30
0 -8 7 -19 17 -24 14 -8 13 -11 -8 -22 -22 -12 -23 -12 -11 3 14 17 16 16 -65
33 -24 4 -40 -11 -22 -21 5 -4 8 -13 5 -21 -3 -7 -1 -16 3 -19 5 -2 11 -13 13
-23 4 -15 0 -19 -23 -20 -35 -1 -43 20 -19 46 18 19 18 21 3 34 -14 10 -15 10
-9 0 5 -8 1 -21 -9 -32 -9 -10 -14 -24 -10 -29 3 -6 1 -11 -4 -11 -6 0 -11 9
-11 20 0 20 0 20 -30 -2 -16 -12 -30 -28 -30 -36 0 -8 -9 -16 -20 -19 -11 -3
-20 -12 -20 -20 0 -12 3 -13 14 -4 10 9 17 7 27 -5 12 -15 11 -16 -8 -10 -17
5 -23 1 -32 -21 l-11 -28 4 27 c1 15 -2 29 -8 31 -7 3 -6 9 3 21 17 20 7 34
-13 17 -8 -6 -12 -21 -9 -31 6 -23 -7 -26 -26 -7 -10 10 -11 6 -6 -20 4 -26 2
-33 -11 -33 -12 0 -15 6 -10 26 l7 26 -24 -26 c-13 -14 -27 -26 -31 -26 -11 0
-6 28 7 33 6 3 2 6 -10 6 -13 1 -23 -3 -23 -9 0 -5 -7 -10 -15 -10 -9 0 -15
-9 -15 -25 0 -15 -6 -25 -15 -25 -8 0 -13 -6 -11 -12 3 -7 7 -26 11 -42 5 -25
4 -27 -9 -14 -9 9 -12 24 -9 38 4 17 2 21 -8 18 -8 -3 -13 -12 -11 -22 2 -9
-2 -16 -8 -16 -5 0 -10 7 -10 16 0 8 -4 13 -9 10 -5 -3 -7 -14 -4 -25 4 -15
-1 -18 -21 -18 -16 0 -26 5 -26 14 0 8 5 11 11 7 7 -4 10 -1 7 6 -2 8 -10 16
-17 18 -10 3 -11 -8 -6 -51 7 -51 5 -56 -15 -62 -12 -4 -24 -4 -28 -1 -3 4 4
9 16 13 22 5 32 43 12 43 -5 0 -10 -7 -10 -15 0 -18 -16 -20 -23 -2 -3 6 -6 3
-6 -8 -1 -11 -16 -30 -34 -42 -17 -13 -26 -23 -19 -23 6 0 12 -7 12 -15 0 -8
-3 -15 -6 -15 -11 0 -33 28 -27 34 4 3 -8 6 -26 6 -34 0 -54 -26 -30 -40 7 -5
10 -13 5 -17 -4 -4 -14 0 -21 10 -10 13 -14 15 -18 5 -4 -9 -6 -9 -6 2 -1 9 3
20 8 25 6 6 4 15 -5 23 -8 7 -14 8 -14 2 0 -16 -2 -23 -11 -47 -7 -20 -5 -23
14 -23 12 0 29 -5 37 -10 11 -7 5 -9 -23 -8 -30 1 -39 6 -43 25 -4 12 -4 29
-1 36 3 8 0 14 -7 14 -8 0 -12 -12 -11 -29 1 -23 -2 -28 -22 -28 -35 0 -28
-18 9 -22 20 -2 34 -9 35 -18 4 -20 -14 -47 -24 -36 -4 5 -2 11 5 13 21 8 13
30 -10 28 -37 -4 -38 -4 -38 -16 0 -6 7 -9 14 -6 10 4 13 1 10 -8 -5 -13 -27
-10 -78 11 -14 5 -17 4 -12 -4 4 -7 14 -12 22 -12 8 0 14 -4 14 -9 0 -5 -9 -7
-20 -4 -11 3 -20 0 -20 -6 0 -15 -40 -14 -41 2 0 6 -5 1 -11 -13 -6 -14 -10
-34 -9 -45 1 -18 1 -19 -9 -2 -6 9 -9 21 -6 25 7 12 -7 29 -31 36 -23 7 -32
-7 -13 -19 6 -3 10 -12 10 -18 0 -7 -4 -6 -10 3 -7 11 -10 11 -10 2 0 -7 -5
-10 -10 -7 -6 4 -7 12 -4 18 4 7 3 9 -1 4 -5 -4 -10 -17 -12 -28 -3 -17 1 -20
16 -16 15 3 17 0 13 -16 -3 -14 -1 -18 6 -13 7 4 12 2 12 -3 0 -6 -7 -11 -15
-11 -8 0 -15 5 -15 11 0 6 -7 9 -15 5 -10 -4 -15 1 -15 14 0 11 -5 19 -11 18
-6 -2 -13 2 -16 9 -2 6 4 13 14 15 17 3 17 4 0 11 -14 5 -20 2 -24 -12 -5 -19
-53 -28 -53 -10 0 5 -5 9 -11 9 -8 0 -8 -5 1 -15 9 -10 9 -15 1 -15 -20 0 -12
-17 14 -28 23 -11 27 -9 34 10 5 13 10 17 14 11 4 -6 0 -18 -9 -27 -8 -9 -13
-20 -9 -26 3 -6 -1 -7 -9 -4 -9 3 -16 11 -16 16 0 6 -7 7 -16 4 -8 -3 -12 -2
-9 4 10 17 -26 24 -41 8 -14 -14 -29 -98 -17 -98 3 0 11 7 18 16 11 15 12 15
19 -2 4 -10 4 -15 0 -11 -4 4 -16 0 -26 -10 -11 -9 -18 -11 -18 -5 0 7 -15 12
-35 12 -19 0 -35 -4 -35 -10 0 -5 -9 -10 -20 -10 -11 0 -20 -5 -20 -12 0 -6
-7 -4 -18 5 -25 23 -35 21 -22 -2 13 -26 13 -31 -4 -31 -9 0 -12 7 -9 20 3 12
0 20 -6 20 -7 0 -9 5 -6 10 3 6 -1 10 -9 10 -8 0 -20 8 -25 18 -7 11 -10 12
-11 3 0 -8 -6 -11 -15 -7 -16 6 -38 -31 -28 -46 2 -5 -1 -8 -6 -8 -6 0 -11 10
-12 23 -1 20 -1 20 -10 -5 -6 -16 -19 -28 -32 -30 -15 -2 -21 -9 -19 -20 2
-10 -1 -18 -5 -19 -4 0 -16 -2 -25 -4 -12 -2 -18 3 -18 16 0 10 -4 19 -9 19
-4 0 -7 -13 -5 -30 2 -16 -1 -30 -6 -30 -6 0 -11 10 -11 23 -1 17 -3 15 -8 -8
-5 -23 -13 -31 -36 -36 -17 -4 -22 -7 -12 -8 17 -1 25 -21 8 -21 -5 0 -17 -3
-25 -6 -12 -5 -15 -2 -10 10 7 18 -3 20 -25 7 -7 -5 -10 -14 -7 -20 4 -6 1
-11 -8 -11 -22 0 -29 -19 -14 -38 12 -15 11 -16 -4 -4 -9 7 -18 9 -20 5 -3 -4
-3 -2 -1 5 1 7 -1 11 -6 7 -5 -3 -12 1 -15 7 -4 7 -4 3 -2 -9 3 -19 1 -21 -14
-13 -16 8 -19 5 -25 -20 -4 -16 -10 -29 -13 -28 -15 5 -52 -24 -53 -40 0 -14
-2 -14 -9 3 -7 16 -9 12 -10 -20 -2 -35 -3 -37 -10 -15 l-7 25 -11 -27 c-14
-34 -26 -37 -17 -5 4 15 4 18 -3 8 -5 -7 -15 -10 -21 -7 -6 4 -11 3 -11 -3 0
-6 -7 -8 -16 -4 -11 4 -15 1 -12 -13 2 -11 -2 -18 -9 -17 -7 2 -13 -2 -13 -7
0 -6 -7 -10 -16 -10 -10 0 -14 -5 -10 -16 3 -8 2 -12 -4 -9 -6 3 -15 3 -22 -1
-8 -5 -6 -10 8 -16 15 -6 13 -7 -9 -4 -28 3 -54 -22 -39 -39 4 -5 0 -6 -9 -2
-10 3 -26 -3 -37 -13 -11 -10 -22 -16 -25 -14 -3 3 -8 -4 -12 -15 -3 -12 -13
-21 -21 -21 -8 0 -14 -4 -14 -10 0 -5 -7 -10 -15 -10 -8 0 -15 -5 -15 -11 0
-5 -5 -7 -11 -3 -8 4 -9 -1 -5 -17 3 -13 3 -18 0 -11 -3 6 -10 12 -15 12 -6 0
-8 -4 -5 -9 3 -5 -4 -11 -17 -15 -18 -5 -20 -8 -7 -16 12 -8 12 -10 -5 -10
-11 0 -33 -12 -48 -26 -15 -14 -36 -26 -47 -27 -10 -1 -16 -6 -12 -12 4 -5 23
-35 43 -65 102 -155 111 -293 34 -495 -100 -261 -344 -575 -510 -656 -65 -32
-76 -34 -165 -34 -148 1 -235 44 -459 230 -93 77 -105 85 -114 69 -12 -21 -53
-64 -61 -64 -6 0 -54 -46 -261 -245 -71 -69 -133 -125 -137 -125 -4 0 -8 -6
-8 -12 0 -7 -16 -24 -34 -38 -19 -14 -32 -28 -30 -31 2 -4 -12 -17 -31 -30
-19 -13 -35 -28 -35 -32 0 -12 -27 -37 -39 -37 -6 0 -11 -7 -11 -16 0 -8 -4
-12 -10 -9 -6 3 -10 0 -11 -7 0 -7 -4 -4 -9 7 -7 18 -8 19 -15 3 -7 -18 -25
-15 -25 3 0 6 4 8 9 4 6 -3 9 4 8 15 -1 11 -7 20 -15 20 -10 0 -10 4 2 16 9 8
14 20 11 25 -4 5 2 9 12 9 15 0 16 2 3 11 -11 8 -12 12 -2 16 6 2 12 12 12 21
0 10 9 32 20 50 11 17 17 32 14 32 -2 0 4 10 16 22 11 12 20 27 20 34 0 6 11
22 25 35 13 13 25 29 25 35 0 6 11 21 25 34 14 13 25 28 25 34 0 6 19 31 41
56 23 25 59 65 81 90 22 25 82 88 134 141 l93 96 -64 63 c-54 54 -66 61 -79
51 -9 -8 -14 -17 -11 -21 3 -4 -3 -14 -13 -21 -16 -13 -16 -13 -2 6 14 19 14
19 -2 6 -10 -7 -18 -19 -18 -27 0 -7 -5 -16 -12 -20 -7 -5 -8 -3 -3 6 5 9 4
11 -3 6 -7 -4 -12 -12 -12 -18 0 -17 -142 -158 -153 -151 -6 3 -7 2 -4 -4 8
-12 -137 -156 -147 -146 -4 4 -6 3 -4 -3 4 -16 -41 -76 -52 -69 -6 4 -7 -1 -3
-11 5 -14 3 -16 -11 -11 -10 4 -15 3 -11 -3 8 -13 -50 -81 -60 -72 -4 4 -5 2
-3 -3 1 -6 -18 -35 -43 -65 -26 -30 -68 -89 -95 -130 -26 -41 -50 -77 -53 -80
-18 -16 -63 -92 -81 -140 -12 -30 -25 -59 -29 -65 -4 -5 -15 -31 -25 -58 -11
-28 -22 -44 -29 -40 -7 4 -8 0 -4 -11 4 -9 0 -63 -9 -119 -9 -56 -16 -115 -16
-132 1 -16 -4 -33 -10 -36 -8 -5 -6 -16 6 -34 12 -18 13 -25 5 -19 -12 6 -12
5 0 -9 9 -11 10 -17 2 -17 -6 0 -10 -10 -10 -22 1 -17 2 -19 6 -5 2 9 6 17 9
17 2 0 34 -25 71 -55 38 -30 74 -55 81 -55 6 0 12 -4 12 -10 0 -5 6 -10 13
-10 7 0 23 -10 37 -23 14 -12 57 -45 95 -72 39 -27 124 -95 190 -150 134 -113
214 -175 225 -175 4 0 40 -18 81 -40 103 -57 256 -107 369 -121 52 -6 98 -13
101 -15 4 -2 58 1 120 7 153 14 276 57 443 155 82 48 268 190 354 269 39 37
84 76 99 88 29 23 81 79 138 147 126 152 473 500 709 710 21 19 44 40 50 45
31 28 222 201 226 205 3 3 46 38 95 79 50 41 95 79 100 85 6 6 23 21 38 33 26
20 153 134 217 193 14 14 44 41 67 60 109 95 181 159 224 200 26 25 74 69 106
99 32 30 85 79 118 110 34 31 105 97 159 146 119 109 147 135 256 239 47 45
137 128 200 186 63 58 131 121 151 140 20 19 76 71 125 114 49 44 94 85 99 90
6 6 46 44 90 85 44 41 114 107 155 145 42 39 118 109 170 156 52 47 117 105
144 130 28 25 62 56 76 70 15 14 57 54 96 89 38 35 103 96 144 135 173 162
254 238 389 366 79 74 149 135 155 135 6 0 17 10 24 23 11 18 16 20 33 11 16
-8 18 -14 9 -24 -7 -8 -7 -15 -1 -19 5 -4 13 -1 16 4 5 8 13 6 26 -6 18 -16
27 -40 12 -31 -5 3 -9 -5 -9 -18 -2 -19 1 -21 11 -12 7 7 10 17 7 22 -2 6 1 5
8 -2 11 -10 11 -15 -1 -30 -12 -16 -12 -17 2 -6 9 7 19 10 22 6 4 -3 7 -1 7 6
0 23 -152 200 -358 415 l-114 119 7 -45z m-1037 -475 c-21 -2 -38 -9 -38 -14
0 -6 -5 -7 -11 -3 -18 11 12 24 51 22 l35 -1 -37 -4z m44 -25 c-7 -7 -12 -8
-12 -2 0 14 12 26 19 19 2 -3 -1 -11 -7 -17z m-119 -13 c-3 -9 -8 -14 -10 -11
-3 3 -2 9 2 15 9 16 15 13 8 -4z m-38 -45 c3 -5 -1 -10 -9 -10 -9 0 -16 5 -16
10 0 6 4 10 9 10 6 0 13 -4 16 -10z m-88 -19 c-1 -11 -7 -17 -17 -16 -8 2 -19
4 -23 4 -5 1 -5 6 -1 12 4 8 9 7 15 -2 7 -11 9 -10 9 4 0 9 4 17 9 17 6 0 9
-8 8 -19z m143 9 c0 -5 -2 -10 -4 -10 -3 0 -8 5 -11 10 -3 6 -1 10 4 10 6 0
11 -4 11 -10z m-70 -50 c0 -5 -5 -10 -11 -10 -5 0 -7 5 -4 10 3 6 8 10 11 10
2 0 4 -4 4 -10z m-120 -20 c0 -5 -4 -10 -10 -10 -5 0 -10 5 -10 10 0 6 5 10
10 10 6 0 10 -4 10 -10z m-150 -10 c13 -9 13 -12 -3 -24 -14 -11 -15 -15 -5
-20 10 -5 10 -7 1 -12 -7 -3 -13 -14 -13 -24 0 -10 -3 -21 -7 -23 -5 -3 -6 14
-5 38 3 30 9 45 20 48 11 3 9 5 -6 6 -13 0 -20 6 -17 11 8 13 16 12 35 0z
m254 1 c3 -5 -1 -11 -9 -14 -9 -4 -12 -1 -8 9 6 16 10 17 17 5z m-204 -61 c0
-5 -5 -10 -11 -10 -5 0 -7 -4 -4 -10 3 -5 1 -10 -4 -10 -13 0 -13 3 -5 24 7
18 24 22 24 6z m-188 -65 c-5 -28 -22 -24 -22 6 0 10 6 19 14 19 9 0 12 -8 8
-25z m185 19 c-3 -3 -12 -4 -19 -1 -8 3 -5 6 6 6 11 1 17 -2 13 -5z m-67 -24
c-8 -5 -19 -10 -25 -10 -5 0 -3 5 5 10 8 5 20 10 25 10 6 0 3 -5 -5 -10z
m-260 -71 c0 -5 -4 -9 -10 -9 -5 0 -10 7 -10 16 0 8 5 12 10 9 6 -3 10 -10 10
-16z m185 11 c3 -6 -1 -7 -9 -4 -18 7 -21 14 -7 14 6 0 13 -4 16 -10z m-125
-10 c0 -5 -7 -10 -16 -10 -8 0 -12 5 -9 10 3 6 10 10 16 10 5 0 9 -4 9 -10z
m67 -7 c-4 -3 -19 -8 -34 -9 -21 -2 -24 -1 -13 6 17 11 57 14 47 3z m-120 -79
c-3 -3 -12 -4 -19 -1 -8 3 -5 6 6 6 11 1 17 -2 13 -5z m-219 -34 c3 -7 0 -10
-7 -6 -6 4 -11 0 -11 -9 0 -9 -4 -13 -10 -10 -5 3 -10 -1 -10 -10 0 -9 -5 -13
-11 -10 -7 5 -5 13 5 24 9 10 16 23 16 30 0 16 22 9 28 -9z m97 1 c-3 -6 -14
-10 -23 -10 -15 1 -15 2 1 6 9 2 17 9 17 15 0 6 3 9 6 5 3 -3 3 -10 -1 -16z
m22 -13 c-3 -7 -5 -2 -5 12 0 14 2 19 5 13 2 -7 2 -19 0 -25z m-74 5 c-3 -7 0
-13 6 -13 6 0 11 -5 11 -12 0 -6 -9 -3 -20 7 -18 17 -20 17 -14 2 5 -13 1 -17
-16 -17 -19 0 -20 1 -6 16 9 8 16 19 16 23 0 4 6 8 14 8 8 0 12 -6 9 -14z
m-23 -57 c0 -3 -4 -8 -10 -11 -5 -3 -10 -1 -10 4 0 6 5 11 10 11 6 0 10 -2 10
-4z m-50 -21 c0 -8 -2 -15 -4 -15 -2 0 -6 7 -10 15 -3 8 -1 15 4 15 6 0 10 -7
10 -15z m-87 -29 c-29 -35 -43 -44 -43 -26 0 6 5 10 10 10 14 0 12 27 -2 34
-7 3 -1 3 15 0 16 -4 27 -2 27 5 0 6 5 11 11 11 6 0 -2 -15 -18 -34z m27 -7
c-9 -15 -8 -24 1 -37 12 -16 12 -16 -5 -1 -15 14 -16 21 -7 38 7 11 14 21 17
21 2 0 0 -9 -6 -21z m-125 -39 c19 -8 19 -9 -2 -9 -12 -1 -25 4 -28 9 -7 12 2
12 30 0z m100 -10 c3 -5 1 -10 -4 -10 -6 0 -11 5 -11 10 0 6 2 10 4 10 3 0 8
-4 11 -10z m-219 -23 c4 -4 -2 -7 -14 -7 -12 0 -22 4 -22 9 0 10 26 9 36 -2z
m87 -7 c3 -11 1 -18 -4 -14 -5 3 -9 12 -9 20 0 20 7 17 13 -6z m33 11 c-4 -5
-1 -11 5 -13 7 -2 5 -9 -5 -17 -14 -12 -16 -12 -10 3 3 9 1 16 -6 16 -6 0 -8
5 -5 10 3 6 11 10 16 10 6 0 8 -4 5 -9z m39 -11 c3 -5 1 -10 -4 -10 -6 0 -11
5 -11 10 0 6 2 10 4 10 3 0 8 -4 11 -10z m-138 -32 c-3 -8 -6 -5 -6 6 -1 11 2
17 5 13 3 -3 4 -12 1 -19z m36 -13 c-3 -9 -8 -14 -10 -11 -3 3 -2 9 2 15 9 16
15 13 8 -4z m-246 -87 c-3 -8 -6 -5 -6 6 -1 11 2 17 5 13 3 -3 4 -12 1 -19z
m20 -10 c-3 -8 -6 -5 -6 6 -1 11 2 17 5 13 3 -3 4 -12 1 -19z m-30 -13 c8 -9
12 -19 8 -23 -4 -4 -10 -1 -12 6 -3 6 -11 12 -19 12 -9 0 -12 5 -9 10 8 14 14
13 32 -5z m-77 -25 c0 -5 -4 -10 -10 -10 -5 0 -10 5 -10 10 0 6 5 10 10 10 6
0 10 -4 10 -10z m30 0 c0 -5 -2 -10 -4 -10 -3 0 -8 5 -11 10 -3 6 -1 10 4 10
6 0 11 -4 11 -10z m-230 -10 c0 -5 -4 -10 -10 -10 -5 0 -10 5 -10 10 0 6 5 10
10 10 6 0 10 -4 10 -10z m50 -24 c0 -3 -4 -8 -10 -11 -5 -3 -10 -1 -10 4 0 6
5 11 10 11 6 0 10 -2 10 -4z m-121 -13 c0 -5 -4 -17 -9 -28 -8 -17 -8 -16 -7
8 1 15 5 27 9 27 4 0 8 -3 7 -7z m256 -3 c8 -13 -5 -13 -25 0 -13 8 -13 10 2
10 9 0 20 -4 23 -10z m-227 -17 c-10 -2 -18 -9 -18 -15 0 -6 -3 -9 -6 -5 -10
10 6 27 24 26 15 -1 15 -2 0 -6z m92 -3 c0 -5 -5 -10 -11 -10 -5 0 -7 5 -4 10
3 6 8 10 11 10 2 0 4 -4 4 -10z m57 -27 c-3 -10 -5 -4 -5 12 0 17 2 24 5 18 2
-7 2 -21 0 -30z m-142 -23 c3 -5 1 -10 -4 -10 -6 0 -11 5 -11 10 0 6 2 10 4
10 3 0 8 -4 11 -10z m35 -35 c0 -5 -5 -3 -10 5 -5 8 -10 20 -10 25 0 6 5 3 10
-5 5 -8 10 -19 10 -25z m-315 15 c-3 -5 -2 -10 3 -10 6 0 12 -7 16 -15 7 -20
-8 -19 -28 1 -17 16 -27 6 -24 -26 2 -29 -2 -50 -11 -50 -4 0 -7 10 -6 23 1
12 3 37 4 55 1 27 5 32 27 32 14 0 23 -4 19 -10z m129 -32 c-3 -4 -9 -8 -15
-8 -5 0 -9 4 -9 8 0 5 7 9 15 9 8 0 12 -4 9 -9z m-226 -36 c6 -18 -15 -14 -22
4 -4 10 -1 14 6 12 6 -2 14 -10 16 -16z m222 -4 c0 -6 -6 -5 -15 2 -8 7 -15
14 -15 16 0 2 7 1 15 -2 8 -4 15 -11 15 -16z m-193 -3 c0 -8 -4 -12 -9 -9 -5
3 -6 10 -3 15 9 13 12 11 12 -6z m103 11 c0 -3 -4 -8 -10 -11 -5 -3 -10 -1
-10 4 0 6 5 11 10 11 6 0 10 -2 10 -4z m-200 -46 c0 -5 -2 -10 -4 -10 -3 0 -8
5 -11 10 -3 6 -1 10 4 10 6 0 11 -4 11 -10z m30 0 c0 -5 -4 -10 -10 -10 -5 0
-10 5 -10 10 0 6 5 10 10 10 6 0 10 -4 10 -10z m65 0 c3 -5 1 -10 -4 -10 -6 0
-11 5 -11 10 0 6 2 10 4 10 3 0 8 -4 11 -10z m-79 -32 c4 -7 3 -8 -4 -4 -7 4
-12 2 -12 -5 0 -7 -3 -10 -6 -6 -6 5 3 27 11 27 2 0 7 -5 11 -12z m-46 -27 c0
-6 -4 -13 -10 -16 -5 -3 -10 1 -10 9 0 9 5 16 10 16 6 0 10 -4 10 -9z m-60
-21 c0 -5 -7 -10 -16 -10 -8 0 -12 5 -9 10 3 6 10 10 16 10 5 0 9 -4 9 -10z
m-62 -24 c-7 -8 -15 -12 -17 -11 -5 6 10 25 20 25 5 0 4 -6 -3 -14z m-293
-196 c-3 -5 -10 -10 -16 -10 -5 0 -9 5 -9 10 0 6 7 10 16 10 8 0 12 -4 9 -10z"/>
<path d="M11051 12264 c0 -11 3 -14 6 -6 3 7 2 16 -1 19 -3 4 -6 -2 -5 -13z"/>
<path d="M11208 12243 c7 -3 16 -2 19 1 4 3 -2 6 -13 5 -11 0 -14 -3 -6 -6z"/>
<path d="M11062 12220 c0 -14 2 -19 5 -12 2 6 2 18 0 25 -3 6 -5 1 -5 -13z"/>
<path d="M10982 12200 c0 -14 2 -19 5 -12 2 6 2 18 0 25 -3 6 -5 1 -5 -13z"/>
<path d="M11192 12198 c-7 -7 -12 -19 -12 -27 0 -11 5 -8 16 7 18 25 15 39 -4
20z"/>
<path d="M11070 12170 c0 -11 4 -20 9 -20 5 0 7 9 4 20 -3 11 -7 20 -9 20 -2
0 -4 -9 -4 -20z"/>
<path d="M11100 12178 c0 -3 9 -6 20 -5 11 1 20 5 20 9 0 3 -9 6 -20 5 -11 -1
-20 -5 -20 -9z"/>
<path d="M10991 12154 c0 -11 3 -14 6 -6 3 7 2 16 -1 19 -3 4 -6 -2 -5 -13z"/>
<path d="M11168 12143 c7 -3 16 -2 19 1 4 3 -2 6 -13 5 -11 0 -14 -3 -6 -6z"/>
<path d="M11002 12070 c0 -19 2 -27 5 -17 2 9 2 25 0 35 -3 9 -5 1 -5 -18z"/>
<path d="M9210 11993 l-55 -58 58 55 c53 50 62 60 54 60 -1 0 -27 -26 -57 -57z"/>
<path d="M10975 12020 c3 -5 8 -10 11 -10 2 0 4 5 4 10 0 6 -5 10 -11 10 -5 0
-7 -4 -4 -10z"/>
<path d="M10900 12006 c0 -2 7 -7 16 -10 8 -3 12 -2 9 4 -6 10 -25 14 -25 6z"/>
<path d="M10887 11970 c-3 -11 -1 -20 4 -20 5 0 9 9 9 20 0 11 -2 20 -4 20 -2
0 -6 -9 -9 -20z"/>
<path d="M10942 11940 c0 -14 2 -19 5 -12 2 6 2 18 0 25 -3 6 -5 1 -5 -13z"/>
<path d="M10850 11930 c8 -5 14 -22 14 -37 -1 -20 0 -22 3 -5 3 16 11 22 31
22 24 1 22 3 -13 15 -47 17 -56 18 -35 5z"/>
<path d="M10803 11915 c0 -8 4 -15 9 -15 4 0 8 4 8 9 0 6 -4 12 -8 15 -5 3 -9
-1 -9 -9z"/>
<path d="M10774 11878 c-5 -7 -2 -9 8 -5 9 3 21 0 27 -6 8 -8 11 -8 11 0 0 6
-7 14 -16 17 -21 8 -22 8 -30 -6z"/>
<path d="M9054 11848 l-29 -33 33 29 c30 28 37 36 29 36 -2 0 -16 -15 -33 -32z"/>
<path d="M10630 11840 c0 -5 5 -10 11 -10 5 0 7 5 4 10 -3 6 -8 10 -11 10 -2
0 -4 -4 -4 -10z"/>
<path d="M10760 11839 c0 -5 5 -7 10 -4 6 3 10 8 10 11 0 2 -4 4 -10 4 -5 0
-10 -5 -10 -11z"/>
<path d="M10790 11833 c0 -10 4 -14 8 -8 4 6 11 13 16 18 5 4 2 7 -7 7 -10 0
-17 -8 -17 -17z"/>
<path d="M7720 11745 c-7 -13 -17 -22 -22 -19 -4 3 -8 1 -8 -5 0 -19 -72 -45
-117 -42 -41 2 -47 -1 -81 -40 -20 -23 -36 -46 -34 -51 1 -4 -3 -8 -10 -8 -15
0 -78 -72 -72 -82 3 -4 1 -8 -5 -8 -17 0 -52 -43 -46 -57 3 -10 0 -11 -15 -3
-16 8 -18 7 -15 -9 4 -20 -18 -36 -43 -32 -7 1 -11 -4 -10 -11 2 -7 -5 -12
-14 -12 -10 1 -15 -2 -13 -7 3 -4 -15 -22 -40 -39 -25 -17 -45 -33 -45 -36 0
-3 55 33 123 79 67 47 122 89 122 95 0 6 7 17 15 24 12 11 12 11 1 -4 -20 -26
-4 -22 51 13 26 17 45 35 42 40 -3 5 1 7 8 4 7 -3 55 22 107 56 84 56 95 67
118 116 24 57 27 83 3 38z m-309 -242 c12 -16 12 -17 -2 -6 -9 7 -20 9 -24 5
-5 -4 -5 -1 -1 6 9 16 11 15 27 -5z"/>
<path d="M10648 11763 c7 -3 16 -2 19 1 4 3 -2 6 -13 5 -11 0 -14 -3 -6 -6z"/>
<path d="M10448 11753 c7 -3 16 -2 19 1 4 3 -2 6 -13 5 -11 0 -14 -3 -6 -6z"/>
<path d="M10590 11730 c0 -5 5 -10 10 -10 6 0 10 5 10 10 0 6 -4 10 -10 10 -5
0 -10 -4 -10 -10z"/>
<path d="M10475 11696 c0 -13 4 -28 8 -32 4 -5 5 0 1 10 -5 14 -4 17 5 11 10
-6 11 -3 2 14 -15 27 -17 26 -16 -3z"/>
<path d="M10715 11699 c-4 -11 -4 -23 -1 -26 3 -4 6 1 6 10 0 8 8 17 18 19 16
3 16 4 0 10 -12 5 -19 1 -23 -13z"/>
<path d="M10451 11684 c0 -11 3 -14 6 -6 3 7 2 16 -1 19 -3 4 -6 -2 -5 -13z"/>
<path d="M10404 11599 c-3 -6 -2 -15 4 -21 6 -6 12 -6 16 1 4 6 2 11 -4 11 -6
0 -8 5 -5 10 3 6 4 10 1 10 -3 0 -8 -5 -12 -11z"/>
<path d="M10321 11574 c0 -11 3 -14 6 -6 3 7 2 16 -1 19 -3 4 -6 -2 -5 -13z"/>
<path d="M10150 11569 c0 -5 5 -7 10 -4 6 3 10 8 10 11 0 2 -4 4 -10 4 -5 0
-10 -5 -10 -11z"/>
<path d="M12240 11548 c0 -19 2 -20 10 -8 13 19 13 30 0 30 -5 0 -10 -10 -10
-22z"/>
<path d="M10454 11549 c-3 -6 -1 -16 5 -22 8 -8 11 -5 11 11 0 24 -5 28 -16
11z"/>
<path d="M10276 11528 c5 -8 0 -9 -14 -6 -12 4 -20 2 -16 -3 9 -15 44 -10 44
6 0 8 -5 15 -11 15 -5 0 -7 -5 -3 -12z"/>
<path d="M10220 11495 c1 -26 2 -28 11 -12 8 14 8 22 0 30 -8 8 -11 3 -11 -18z"/>
<path d="M12241 11504 c0 -11 3 -14 6 -6 3 7 2 16 -1 19 -3 4 -6 -2 -5 -13z"/>
<path d="M10076 11443 c-6 -14 -5 -15 5 -6 7 7 10 15 7 18 -3 3 -9 -2 -12 -12z"/>
<path d="M10080 11390 c0 -6 -4 -9 -9 -5 -5 3 -13 0 -16 -6 -12 -18 3 -22 25
-6 13 9 17 17 11 22 -6 3 -11 1 -11 -5z"/>
<path d="M9960 11380 c0 -4 8 -10 18 -13 9 -2 26 -8 37 -12 15 -6 14 -3 -5 11
-27 20 -50 27 -50 14z"/>
<path d="M9916 11315 c-3 -8 -1 -15 4 -15 6 0 10 7 10 15 0 8 -2 15 -4 15 -2
0 -6 -7 -10 -15z"/>
<path d="M9940 11321 c0 -6 5 -13 10 -16 6 -3 10 1 10 9 0 9 -4 16 -10 16 -5
0 -10 -4 -10 -9z"/>
<path d="M9818 11283 c7 -3 16 -2 19 1 4 3 -2 6 -13 5 -11 0 -14 -3 -6 -6z"/>
<path d="M9898 11283 c7 -3 16 -2 19 1 4 3 -2 6 -13 5 -11 0 -14 -3 -6 -6z"/>
<path d="M7082 11256 c-46 -33 -53 -43 -14 -20 19 10 38 25 44 32 15 17 8 14
-30 -12z"/>
<path d="M9850 11270 c0 -5 -8 -7 -17 -4 -11 4 -14 3 -7 -3 6 -4 14 -15 17
-23 4 -12 6 -11 6 3 1 9 8 17 16 17 8 0 15 5 15 10 0 6 -7 10 -15 10 -8 0 -15
-4 -15 -10z"/>
<path d="M9775 11260 c-3 -5 -1 -10 4 -10 6 0 11 5 11 10 0 6 -2 10 -4 10 -3
0 -8 -4 -11 -10z"/>
<path d="M9873 11243 c-18 -7 -16 -23 2 -23 8 0 15 7 15 15 0 8 -1 15 -2 14
-2 0 -9 -3 -15 -6z"/>
<path d="M9645 11220 c-3 -5 -1 -10 4 -10 6 0 11 5 11 10 0 6 -2 10 -4 10 -3
0 -8 -4 -11 -10z"/>
<path d="M9676 11213 c-6 -14 -5 -15 5 -6 7 7 10 15 7 18 -3 3 -9 -2 -12 -12z"/>
<path d="M9555 11200 c-3 -5 -1 -10 4 -10 6 0 11 5 11 10 0 6 -2 10 -4 10 -3
0 -8 -4 -11 -10z"/>
<path d="M9670 11180 c0 -5 5 -10 10 -10 6 0 10 5 10 10 0 6 -4 10 -10 10 -5
0 -10 -4 -10 -10z"/>
<path d="M11791 11164 c0 -11 3 -14 6 -6 3 7 2 16 -1 19 -3 4 -6 -2 -5 -13z"/>
<path d="M11790 11124 c-24 -30 -50 -59 -57 -63 -7 -4 -167 -157 -354 -341
-188 -184 -346 -334 -351 -332 -5 1 -7 -1 -4 -6 8 -13 -43 -54 -56 -46 -7 4
-8 3 -4 -5 8 -12 -91 -108 -107 -103 -5 1 -6 -1 -3 -6 3 -5 -54 -67 -127 -138
-424 -416 -517 -505 -527 -499 -6 4 -9 1 -8 -7 2 -7 -3 -12 -10 -10 -8 1 -11
-2 -8 -7 7 -11 -132 -147 -146 -143 -5 1 -7 -1 -4 -6 5 -9 -61 -79 -70 -74 -2
1 -4 -1 -3 -4 2 -13 -85 -93 -94 -87 -6 3 -7 2 -4 -4 8 -12 -289 -307 -302
-299 -5 3 -14 -1 -21 -9 -7 -8 -9 -15 -4 -15 4 0 -3 -11 -16 -25 -12 -13 -27
-22 -33 -18 -6 3 -7 2 -4 -4 8 -13 -279 -297 -292 -289 -7 4 -9 1 -5 -8 4 -10
-1 -15 -13 -16 -298 -13 -361 -26 -494 -101 -95 -53 -177 -121 -314 -257 -263
-262 -401 -464 -411 -602 -3 -43 -3 -43 12 15 38 154 154 322 374 546 169 172
296 266 430 322 87 36 151 47 284 47 l112 0 34 35 c19 20 40 33 48 30 7 -2 11
-1 8 3 -6 10 68 85 75 77 3 -2 21 11 39 30 19 19 30 35 25 35 -5 0 4 14 20 30
39 40 57 39 19 -2 l-29 -32 35 28 c19 15 72 56 117 91 45 36 85 70 89 76 3 6
-20 -10 -52 -36 -113 -89 -125 -98 -130 -93 -5 5 378 388 896 896 182 178 248
237 258 230 21 -18 14 -37 -34 -88 -33 -35 -41 -50 -32 -56 7 -4 10 -4 6 1 -4
4 12 30 37 56 43 46 56 81 35 94 -5 3 -10 12 -9 18 0 9 2 9 6 0 2 -7 9 -13 14
-13 4 0 6 6 3 14 -6 16 79 103 426 438 118 113 311 302 429 420 118 117 218
213 222 213 4 0 38 35 74 78 37 42 63 77 58 77 -4 0 -28 -25 -53 -56z m-2410
-2387 c0 -2 -12 -14 -27 -28 l-28 -24 24 28 c23 25 31 32 31 24z"/>
<path d="M9526 11161 c-12 -5 -15 -10 -9 -14 6 -4 16 0 23 8 14 17 13 17 -14
6z"/>
<path d="M9580 11150 c0 -5 5 -10 10 -10 6 0 10 5 10 10 0 6 -4 10 -10 10 -5
0 -10 -4 -10 -10z"/>
<path d="M9425 11120 c-3 -5 -1 -10 4 -10 6 0 11 5 11 10 0 6 -2 10 -4 10 -3
0 -8 -4 -11 -10z"/>
<path d="M9500 11120 c0 -6 7 -10 15 -10 8 0 15 2 15 4 0 2 -7 6 -15 10 -8 3
-15 1 -15 -4z"/>
<path d="M9558 11113 c7 -3 16 -2 19 1 4 3 -2 6 -13 5 -11 0 -14 -3 -6 -6z"/>
<path d="M9486 11086 c21 -15 30 -14 19 3 -3 6 -14 11 -23 11 -13 0 -13 -2 4
-14z"/>
<path d="M9522 11080 c0 -14 2 -19 5 -12 2 6 2 18 0 25 -3 6 -5 1 -5 -13z"/>
<path d="M9558 11080 c10 -12 18 -16 21 -9 2 6 -3 15 -10 20 -24 15 -29 10
-11 -11z"/>
<path d="M6819 11073 c-13 -16 -12 -17 4 -4 16 13 21 21 13 21 -2 0 -10 -8
-17 -17z"/>
<path d="M9418 11063 c7 -3 16 -2 19 1 4 3 -2 6 -13 5 -11 0 -14 -3 -6 -6z"/>
<path d="M9250 11051 c0 -10 19 -25 25 -20 1 2 -3 10 -11 17 -8 7 -14 8 -14 3z"/>
<path d="M9356 11044 c-4 -10 -1 -14 6 -12 15 5 23 28 10 28 -5 0 -13 -7 -16
-16z"/>
<path d="M6759 11023 c-13 -16 -12 -17 4 -4 16 13 21 21 13 21 -2 0 -10 -8
-17 -17z"/>
<path d="M9141 11014 c0 -11 3 -14 6 -6 3 7 2 16 -1 19 -3 4 -6 -2 -5 -13z"/>
<path d="M9171 11004 c0 -11 3 -14 6 -6 3 7 2 16 -1 19 -3 4 -6 -2 -5 -13z"/>
<path d="M9220 11000 c0 -5 4 -10 9 -10 6 0 13 5 16 10 3 6 -1 10 -9 10 -9 0
-16 -4 -16 -10z"/>
<path d="M9060 10990 c0 -5 5 -10 10 -10 6 0 10 5 10 10 0 6 -4 10 -10 10 -5
0 -10 -4 -10 -10z"/>
<path d="M9245 10980 c-3 -5 -1 -10 4 -10 6 0 11 5 11 10 0 6 -2 10 -4 10 -3
0 -8 -4 -11 -10z"/>
<path d="M9189 10949 c-10 -6 -11 -9 -1 -9 20 0 13 -14 -13 -27 -14 -6 -27 -7
-31 -2 -8 14 -44 10 -50 -5 -7 -18 31 -62 40 -47 4 6 29 13 56 17 35 5 50 11
50 21 0 10 -6 13 -15 9 -8 -3 -22 -9 -30 -12 -8 -3 -15 -1 -15 6 0 6 5 8 10 5
6 -3 13 1 16 9 3 9 12 16 20 16 8 0 14 4 14 9 0 13 -36 20 -51 10z m-33 -66
c-6 -6 -36 9 -36 18 0 5 9 4 20 -3 10 -7 18 -14 16 -15z"/>
<path d="M9140 10940 c0 -5 5 -10 11 -10 5 0 7 5 4 10 -3 6 -8 10 -11 10 -2 0
-4 -4 -4 -10z"/>
<path d="M9050 10911 c0 -5 7 -11 15 -15 9 -3 15 0 15 9 0 8 -7 15 -15 15 -8
0 -15 -4 -15 -9z"/>
<path d="M8874 10805 c3 -21 16 -31 16 -12 0 9 -4 18 -9 21 -5 4 -8 -1 -7 -9z"/>
<path d="M7540 10695 c-19 -19 -49 -40 -66 -47 -28 -10 -31 -14 -21 -30 7 -10
16 -18 22 -17 12 1 119 129 108 129 -5 0 -24 -16 -43 -35z"/>
<path d="M10449 9713 c-18 -20 -27 -32 -18 -25 9 6 19 10 22 7 4 -3 5 -2 2 2
-8 10 26 43 38 36 6 -3 7 -1 3 5 -10 16 -7 17 -47 -25z"/>
<path d="M10367 9632 c-34 -35 -35 -38 -14 -39 12 0 16 1 9 4 -10 4 -4 15 19
39 18 19 31 34 28 34 -3 0 -22 -17 -42 -38z"/>
<path d="M10279 9543 l-34 -38 38 34 c34 33 42 41 34 41 -2 0 -19 -17 -38 -37z"/>
<path d="M6374 9528 c-23 -26 -24 -28 -4 -12 14 12 34 21 44 21 23 0 66 -35
66 -53 0 -8 6 -11 15 -8 8 4 15 10 15 15 0 9 -84 69 -97 69 -5 0 -22 -15 -39
-32z"/>
<path d="M10219 9483 c-13 -16 -12 -17 4 -4 16 13 21 21 13 21 -2 0 -10 -8
-17 -17z"/>
<path d="M10134 9398 l-19 -23 23 19 c21 18 27 26 19 26 -2 0 -12 -10 -23 -22z"/>
<path d="M10079 9313 c-13 -16 -12 -17 4 -4 9 7 17 15 17 17 0 8 -8 3 -21 -13z"/>
<path d="M6109 9263 l-24 -28 28 24 c15 14 27 26 27 28 0 8 -8 1 -31 -24z"/>
<path d="M9900 9149 c-19 -17 -26 -26 -15 -21 18 9 64 52 54 52 -2 0 -20 -14
-39 -31z"/>
<path d="M9726 9133 c-6 -14 -5 -15 5 -6 7 7 10 15 7 18 -3 3 -9 -2 -12 -12z"/>
<path d="M9835 9120 c-3 -5 -3 -10 1 -10 4 0 -3 -12 -17 -27 l-24 -26 27 19
c14 10 26 27 25 37 -1 20 -3 21 -12 7z"/>
<path d="M5944 9078 l-19 -23 23 19 c12 11 22 21 22 23 0 8 -8 2 -26 -19z"/>
<path d="M9773 9063 c4 -6 -10 -25 -31 -43 -29 -25 -30 -27 -6 -11 44 29 58
47 43 57 -7 4 -9 3 -6 -3z"/>
<path d="M5879 9003 c-13 -16 -12 -17 4 -4 9 7 17 15 17 17 0 8 -8 3 -21 -13z"/>
<path d="M9683 8995 c4 -5 -3 -20 -15 -33 l-23 -25 28 18 c30 19 34 30 15 41
-7 4 -10 3 -5 -1z"/>
<path d="M9193 8615 c0 -8 4 -12 9 -9 5 3 6 10 3 15 -9 13 -12 11 -12 -6z"/>
<path d="M8769 8113 l-34 -38 38 34 c20 19 37 36 37 38 0 8 -8 0 -41 -34z"/>
<path d="M5552 8090 c0 -14 2 -19 5 -12 2 6 2 18 0 25 -3 6 -5 1 -5 -13z"/>
<path d="M5561 8040 c-2 -73 41 -281 55 -267 3 2 -1 17 -7 33 -6 16 -19 81
-29 144 -10 63 -18 104 -19 90z"/>
<path d="M8655 8000 c-10 -11 -14 -20 -9 -20 5 0 15 9 22 20 7 11 11 20 9 20
-2 0 -12 -9 -22 -20z"/>
<path d="M8495 7829 c-33 -33 -53 -57 -45 -53 15 6 117 114 109 114 -3 0 -31
-27 -64 -61z"/>
<path d="M5620 7760 c0 -26 72 -169 128 -252 68 -101 216 -268 272 -308 26
-18 28 -18 26 -3 -2 10 -11 18 -21 18 -10 0 -20 6 -23 14 -3 9 0 11 8 6 9 -5
11 -4 6 4 -4 6 -12 9 -17 5 -10 -6 -74 61 -74 77 0 4 -4 11 -9 16 -5 5 -6 3
-2 -4 4 -7 3 -13 -2 -13 -11 0 -26 30 -23 43 1 5 -2 6 -7 3 -12 -7 -54 38 -45
49 5 4 3 5 -3 2 -14 -8 -148 194 -173 263 -19 50 -41 92 -41 80z"/>
<path d="M7932 7510 c0 -19 2 -27 5 -17 2 9 2 25 0 35 -3 9 -5 1 -5 -18z"/>
<path d="M5955 7340 c-3 -6 1 -7 9 -4 18 7 21 14 7 14 -6 0 -13 -4 -16 -10z"/>
<path d="M7961 7304 c-1 -25 -25 -49 -41 -39 -6 4 -9 1 -8 -7 2 -7 -5 -12 -14
-12 -10 1 -16 -2 -13 -6 8 -13 -151 -101 -171 -94 -14 4 -15 3 -5 -4 10 -8 9
-13 -10 -25 -12 -9 -26 -14 -31 -11 -4 3 -8 0 -8 -6 0 -5 -17 -18 -37 -26 -21
-9 -54 -24 -74 -34 -23 -11 -42 -14 -50 -9 -22 14 -35 10 -15 -4 16 -12 16
-15 3 -26 -10 -8 -17 -9 -22 -1 -3 5 0 10 7 10 9 0 9 3 -2 10 -8 5 -19 10 -25
10 -5 0 -3 -5 5 -10 11 -7 11 -10 2 -10 -7 0 -10 -5 -6 -12 4 -7 3 -8 -5 -4
-6 4 -19 0 -28 -9 -9 -9 -24 -14 -34 -12 -11 3 -19 1 -19 -4 0 -5 -12 -9 -26
-9 -14 0 -23 -4 -19 -10 3 -5 -1 -10 -10 -10 -10 0 -13 -5 -9 -12 5 -7 3 -8
-7 -2 -8 5 -25 10 -39 12 -25 3 -25 3 -5 -13 11 -9 14 -14 8 -10 -7 3 -13 1
-13 -4 0 -6 -15 -10 -32 -10 l-33 1 30 8 c38 10 9 12 -36 3 -29 -5 -30 -7 -14
-15 16 -7 15 -8 -7 -5 -15 2 -26 1 -23 -3 2 -3 -24 -12 -58 -19 -43 -9 -62
-10 -65 -2 -2 6 -29 11 -65 10 -44 0 -56 -3 -42 -9 14 -6 -1 -9 -47 -9 -38 -1
-68 3 -68 8 0 4 -11 6 -25 4 -29 -6 -125 15 -125 28 0 4 -7 6 -15 3 -8 -4 -21
-1 -29 5 -7 6 -16 8 -20 4 -4 -4 -5 5 -2 20 3 16 1 25 -5 22 -5 -4 -7 -10 -4
-15 18 -29 -76 -13 -128 23 -15 10 -33 17 -39 15 -37 -13 314 -128 387 -128
18 0 36 -4 39 -9 3 -5 11 -64 17 -132 13 -156 22 -191 61 -235 34 -39 68 -61
68 -44 0 5 -7 10 -16 10 -9 0 -12 5 -8 12 4 6 3 8 -4 5 -9 -6 -61 44 -63 61 0
4 -2 14 -3 22 -4 21 -15 131 -22 214 -3 39 -7 73 -10 78 -3 4 37 8 88 8 57 0
130 8 184 20 138 30 131 33 140 -57 4 -43 7 -117 8 -165 1 -49 4 -88 7 -88 10
0 17 59 13 100 -1 19 -6 82 -10 140 l-6 105 88 34 c128 48 308 141 464 238
158 99 171 110 160 138 -8 19 -9 19 -9 -1z m-596 -354 c-3 -5 -12 -10 -18 -10
-7 0 -6 4 3 10 19 12 23 12 15 0z m-375 -90 c0 -5 -7 -7 -15 -4 -8 4 -15 8
-15 10 0 2 7 4 15 4 8 0 15 -4 15 -10z"/>
<path d="M6060 7175 c0 -11 154 -117 225 -156 61 -32 79 -38 89 -29 8 10 8 11
-1 6 -7 -4 -22 -2 -33 4 -18 10 -19 14 -8 28 12 15 11 16 -4 4 -14 -11 -22
-10 -50 4 -18 10 -36 18 -39 19 -7 0 -119 80 -151 108 -22 18 -28 20 -28 12z"/>
<path d="M7680 7130 c0 -5 5 -10 11 -10 5 0 7 5 4 10 -3 6 -8 10 -11 10 -2 0
-4 -4 -4 -10z"/>
<path d="M6379 7023 c-13 -16 -12 -17 4 -4 9 7 17 15 17 17 0 8 -8 3 -21 -13z"/>
<path d="M6596 6931 c-4 -5 3 -7 14 -4 23 6 26 13 6 13 -8 0 -17 -4 -20 -9z"/>
<path d="M6818 6873 c7 -3 16 -2 19 1 4 3 -2 6 -13 5 -11 0 -14 -3 -6 -6z"/>
<path d="M6990 6723 c-54 -37 -70 -66 -70 -125 1 -45 13 -70 43 -81 9 -3 17
-17 18 -29 l0 -23 10 23 c8 21 11 22 24 8 8 -8 15 -19 15 -25 0 -22 18 -10 25
17 5 19 9 23 14 12 3 -8 13 -14 21 -14 8 1 20 2 27 3 25 2 73 54 82 88 8 27 7
42 -4 63 -8 15 -11 30 -8 34 4 3 -5 19 -20 34 -23 24 -36 28 -89 30 -46 2 -70
-2 -88 -15z m152 -11 c10 -8 15 -19 12 -24 -3 -4 0 -7 6 -6 7 2 13 -8 15 -22
2 -14 4 -29 5 -35 7 -32 -4 -60 -32 -87 l-32 -29 -14 26 c-13 26 -14 26 -33 9
-17 -15 -19 -15 -25 0 -9 22 -31 20 -44 -5 -11 -19 -13 -20 -30 -4 -52 47 -46
123 13 170 27 22 41 25 87 23 30 -1 63 -9 72 -16z"/>
<path d="M7209 6463 c-18 -21 -96 -56 -109 -48 -6 3 -10 1 -10 -5 0 -16 58 -3
91 21 27 19 55 49 46 49 -2 0 -11 -7 -18 -17z"/>
<path d="M7050 5405 c0 -15 4 -24 10 -20 6 3 10 12 10 20 0 8 -4 17 -10 20 -6
4 -10 -5 -10 -20z"/>
<path d="M10850 751 c25 -14 475 -168 619 -211 299 -89 581 -117 927 -90 134
11 277 30 271 37 -3 2 -60 -3 -128 -12 -269 -34 -552 -30 -788 11 -122 21
-334 82 -640 185 -261 88 -291 97 -261 80z"/>
</g>
</svg>
